name C:\Users\u0101727\Documents\MyRepositories\upper-imu-dc\Results\main_mocap_tracking\Case_6\angularVelocities.mot
datacolumns 4
datarows 58
range 0.51000000 1.08000000
endheader 
time	radius_imu_x	radius_imu_y	radius_imu_z	
          0.51000000	          0.50455619	          0.07966743	         -0.86853669	
          0.52000000	          0.42310853	          0.06049240	         -0.81156011	
          0.53000000	          0.35884195	          0.01646186	         -0.75158802	
          0.54000000	          0.30155691	         -0.04713002	         -0.68466590	
          0.55000000	          0.24683303	         -0.12534599	         -0.61112435	
          0.56000000	          0.19159183	         -0.20151290	         -0.53233335	
          0.57000000	          0.13377632	         -0.25145245	         -0.45058258	
          0.58000000	          0.07244759	         -0.25674296	         -0.36815566	
          0.59000000	          0.00703123	         -0.20763381	         -0.28666908	
          0.60000000	         -0.06252742	         -0.10254009	         -0.20731672	
          0.61000000	         -0.13471361	          0.04638039	         -0.13153863	
          0.62000000	         -0.20716308	          0.21467317	         -0.06067465	
          0.63000000	         -0.27809516	          0.37721642	          0.00458905	
          0.64000000	         -0.34609484	          0.51325670	          0.06388758	
          0.65000000	         -0.40983051	          0.60317219	          0.11721774	
          0.66000000	         -0.46878653	          0.63129436	          0.16528858	
          0.67000000	         -0.52349435	          0.59558936	          0.20882200	
          0.68000000	         -0.57499342	          0.51010167	          0.24785378	
          0.69000000	         -0.62453981	          0.39575671	          0.28237341	
          0.70000000	         -0.67343728	          0.27081028	          0.31300712	
          0.71000000	         -0.72266041	          0.14842799	          0.34083996	
          0.72000000	         -0.77249382	          0.03713760	          0.36713270	
          0.73000000	         -0.82243838	         -0.05883853	          0.39307978	
          0.74000000	         -0.87169709	         -0.13624734	          0.41935407	
          0.75000000	         -0.91996645	         -0.18765970	          0.44593513	
          0.76000000	         -0.96763363	         -0.20160190	          0.47240274	
          0.77000000	         -1.01526689	         -0.16865692	          0.49814681	
          0.78000000	         -1.06333156	         -0.08578652	          0.52254522	
          0.79000000	         -1.11224020	          0.04423635	          0.54510651	
          0.80000000	         -1.16206398	          0.21371005	          0.56519540	
          0.81000000	         -1.21224624	          0.40976289	          0.58188349	
          0.82000000	         -1.26184590	          0.61573387	          0.59435469	
          0.83000000	         -1.30986788	          0.81383839	          0.60225906	
          0.84000000	         -1.35537392	          0.98727558	          0.60572955	
          0.85000000	         -1.39757177	          1.12160009	          0.60533909	
          0.86000000	         -1.43591003	          1.20551782	          0.60207545	
          0.87000000	         -1.47008435	          1.23141499	          0.59722897	
          0.88000000	         -1.49998187	          1.19597948	          0.59219919	
          0.89000000	         -1.52563457	          1.10058477	          0.58836105	
          0.90000000	         -1.54718629	          0.95092870	          0.58705381	
          0.91000000	         -1.56476111	          0.75651965	          0.58949469	
          0.92000000	         -1.57835288	          0.53096514	          0.59654378	
          0.93000000	         -1.58783114	          0.29033449	          0.60853494	
          0.94000000	         -1.59300085	          0.04587823	          0.62544525	
          0.95000000	         -1.59381256	         -0.20103663	          0.64727762	
          0.96000000	         -1.59074219	         -0.45052941	          0.67406599	
          0.97000000	         -1.58510680	         -0.69002452	          0.70539400	
          0.98000000	         -1.57879706	         -0.89416393	          0.74014453	
          0.99000000	         -1.57315562	         -1.04333359	          0.77699169	
          1.00000000	         -1.56825620	         -1.13639740	          0.81499844	
          1.01000000	         -1.56390108	         -1.17806263	          0.85337166	
          1.02000000	         -1.56076754	         -1.16442745	          0.89086497	
          1.03000000	         -1.55982263	         -1.09079119	          0.92596284	
          1.04000000	         -1.56141883	         -0.96208341	          0.95743764	
          1.05000000	         -1.56564925	         -0.78796960	          0.98438506	
          1.06000000	         -1.57267451	         -0.57879379	          1.00611327	
          1.07000000	         -1.58216984	         -0.35028165	          1.02229062	
          1.08000000	         -1.59314872	         -0.12255898	          1.03291661	
